<!DOCTYPE svg PUBLIC "-//W3C//DTD SVG 1.1//EN" "http://www.w3.org/Graphics/SVG/1.1/DTD/svg11.dtd">
<!-- Uploaded to: SVG Repo, www.svgrepo.com, Transformed by: SVG Repo Mixer Tools -->
<svg width="199px" height="199px" viewBox="-8.64 -8.64 41.28 41.28" fill="none" xmlns="http://www.w3.org/2000/svg">
<g id="SVGRepo_bgCarrier" stroke-width="0">
<path transform="translate(-8.64, -8.64), scale(2.58)" fill="#a600ff" d="M9.166.33a2.25 2.25 0 00-2.332 0l-5.25 3.182A2.25 2.25 0 00.5 5.436v5.128a2.25 2.25 0 001.084 1.924l5.25 3.182a2.25 2.25 0 002.332 0l5.25-3.182a2.25 2.25 0 001.084-1.924V5.436a2.25 2.25 0 00-1.084-1.924L9.166.33z" strokewidth="0"/>
</g>
<g id="SVGRepo_tracerCarrier" stroke-linecap="round" stroke-linejoin="round"/>
<g id="SVGRepo_iconCarrier"> <path d="M4 22H20" stroke="#000000" stroke-width="1.152" stroke-linecap="round"/> <path d="M13.8881 3.66293L14.6296 2.92142C15.8581 1.69286 17.85 1.69286 19.0786 2.92142C20.3071 4.14999 20.3071 6.14188 19.0786 7.37044L18.3371 8.11195M13.8881 3.66293C13.8881 3.66293 13.9807 5.23862 15.3711 6.62894C16.7614 8.01926 18.3371 8.11195 18.3371 8.11195M13.8881 3.66293L7.07106 10.4799C6.60933 10.9416 6.37846 11.1725 6.17992 11.4271C5.94571 11.7273 5.74491 12.0522 5.58107 12.396C5.44219 12.6874 5.33894 12.9972 5.13245 13.6167L4.25745 16.2417M18.3371 8.11195L11.5201 14.9289C11.0584 15.3907 10.8275 15.6215 10.5729 15.8201C10.2727 16.0543 9.94775 16.2551 9.60398 16.4189C9.31256 16.5578 9.00282 16.6611 8.38334 16.8675L5.75834 17.7426M5.75834 17.7426L5.11667 17.9564C4.81182 18.0581 4.47573 17.9787 4.2485 17.7515C4.02128 17.5243 3.94194 17.1882 4.04356 16.8833L4.25745 16.2417M5.75834 17.7426L4.25745 16.2417" stroke="#000000" stroke-width="1.152"/> </g>
</svg>