<!DOCTYPE svg PUBLIC "-//W3C//DTD SVG 1.1//EN" "http://www.w3.org/Graphics/SVG/1.1/DTD/svg11.dtd">
<!-- Uploaded to: SVG Repo, www.svgrepo.com, Transformed by: SVG Repo Mixer Tools -->
<svg width="180px" height="180px" viewBox="-4.56 -4.56 33.12 33.12" fill="none" xmlns="http://www.w3.org/2000/svg">
<g id="SVGRepo_bgCarrier" stroke-width="0">
<path transform="translate(-4.56, -4.56), scale(2.07)" fill="#a8a300" d="M9.166.33a2.25 2.25 0 00-2.332 0l-5.25 3.182A2.25 2.25 0 00.5 5.436v5.128a2.25 2.25 0 001.084 1.924l5.25 3.182a2.25 2.25 0 002.332 0l5.25-3.182a2.25 2.25 0 001.084-1.924V5.436a2.25 2.25 0 00-1.084-1.924L9.166.33z" strokewidth="0"/>
</g>
<g id="SVGRepo_tracerCarrier" stroke-linecap="round" stroke-linejoin="round"/>
<g id="SVGRepo_iconCarrier"> <path d="M17 21H7C3 21 2 20 2 16V8C2 4 3 3 7 3H17C21 3 22 4 22 8V16C22 20 21 21 17 21Z" stroke="#000000" stroke-width="1.5" stroke-linecap="round" stroke-linejoin="round"/> <path d="M14 8H19" stroke="#000000" stroke-width="1.5" stroke-linecap="round" stroke-linejoin="round"/> <path d="M15 12H19" stroke="#000000" stroke-width="1.5" stroke-linecap="round" stroke-linejoin="round"/> <path d="M17 16H19" stroke="#000000" stroke-width="1.5" stroke-linecap="round" stroke-linejoin="round"/> <path d="M8.49994 11.2899C9.49958 11.2899 10.3099 10.4796 10.3099 9.47992C10.3099 8.48029 9.49958 7.66992 8.49994 7.66992C7.50031 7.66992 6.68994 8.48029 6.68994 9.47992C6.68994 10.4796 7.50031 11.2899 8.49994 11.2899Z" stroke="#000000" stroke-width="1.5" stroke-linecap="round" stroke-linejoin="round"/> <path d="M12 16.33C11.86 14.88 10.71 13.74 9.26 13.61C8.76 13.56 8.25 13.56 7.74 13.61C6.29 13.75 5.14 14.88 5 16.33" stroke="#000000" stroke-width="1.5" stroke-linecap="round" stroke-linejoin="round"/> </g>
</svg>